# xmcd
#
# Track frame offsets: 
#        150
#        16622
#        37140
#        54736
#        74443
#        86395
#        104238
#        123140
#        137548
#        161108
#        173317
#        191954
#        218296
#        232454
#        270682
#        286175
#        293927
#        315247
#        338533
#
# Disc length: 4732 seconds
#
# Revision: 1
# Processed by: cddbd v1.5.2PL0 Copyright (c) Steve Scherf et al.
# Submitted via: ExactAudioCopyFreeDBPlugin 1.0
#
DISCID=12127a13
DTITLE=Yardbirds - Live at BB King's
DYEAR=2007
DGENRE=Blues
TTITLE0=Train Kept A Rollin'
TTITLE1=Please Don't Tell Me 'Bout the Blues
TTITLE2=Drinking Muddy Water
TTITLE3=Crying Out for Love
TTITLE4=Heart Full of Soul
TTITLE5=My Blind Life
TTITLE6=The Nazz Are Blue
TTITLE7=Mr. You're A Better Man Than I
TTITLE8=Mr. Saboteur
TTITLE9=Shapes of Things
TTITLE10=Mystery of Being
TTITLE11=Rack My Mind
TTITLE12=Over Under Sideways Down
TTITLE13=Back Where I Started
TTITLE14=For Your Love
TTITLE15=Still I'm Sad
TTITLE16=Dazed and Confused
TTITLE17=I'm a Man
TTITLE18=Happenings Ten Years Time Ago
EXTD=
EXTT0=
EXTT1=
EXTT2=
EXTT3=
EXTT4=
EXTT5=
EXTT6=
EXTT7=
EXTT8=
EXTT9=
EXTT10=
EXTT11=
EXTT12=
EXTT13=
EXTT14=
EXTT15=
EXTT16=
EXTT17=
EXTT18=
PLAYORDER=
